<?xml version="1.0" encoding="UTF-8"?>
<svg version="1.1" xmlns="http://www.w3.org/2000/svg" width="132" height="40">
<path d="M0 0 C1.56911133 -0.04350586 1.56911133 -0.04350586 3.16992188 -0.08789062 C10.90164225 -0.15187049 10.90164225 -0.15187049 14.8671875 2.19140625 C16.68976821 4.315143 17.39185037 5.55310341 17.6875 8.3125 C17.0275 8.6425 16.3675 8.9725 15.6875 9.3125 C14.01802198 8.65290515 12.35174139 7.98519817 10.6875 7.3125 C8.18320535 6.95439679 8.18320535 6.95439679 5.60546875 6.8984375 C4.67412109 6.85976562 3.74277344 6.82109375 2.78320312 6.78125 C1.82349609 6.7503125 0.86378906 6.719375 -0.125 6.6875 C-1.10404297 6.64882812 -2.08308594 6.61015625 -3.09179688 6.5703125 C-5.49851374 6.47639184 -7.90523012 6.39071799 -10.3125 6.3125 C-10.34141415 7.89181753 -10.36189789 9.47129063 -10.37890625 11.05078125 C-10.39123291 11.93032471 -10.40355957 12.80986816 -10.41625977 13.71606445 C-10.12679874 20.95940096 -6.92508639 25.2515503 -1.73828125 30.0625 C-1.26777344 30.475 -0.79726563 30.8875 -0.3125 31.3125 C5.61196072 27.06885539 8.1101454 23.11671615 10.6875 16.3125 C6.7275 16.3125 2.7675 16.3125 -1.3125 16.3125 C-0.9825 19.9425 -0.6525 23.5725 -0.3125 27.3125 C-4.3125 26.3125 -4.3125 26.3125 -5.578125 24.4921875 C-7.70751057 19.50672129 -8.8780819 15.74208629 -8.3125 10.3125 C-6.07734509 8.07734509 -1.06159808 9.033127 1.9375 9 C2.79730469 8.97099609 3.65710938 8.94199219 4.54296875 8.91210938 C8.69671644 8.8705079 11.10191753 8.98010236 14.77734375 11.06640625 C16.6875 13.3125 16.6875 13.3125 17.17578125 15.453125 C17.01302083 17.40625 16.85026042 19.359375 16.6875 21.3125 C17.50734375 21.3125 18.3271875 21.3125 19.171875 21.3125 C28.34375 21.3125 37.515625 21.3125 46.6875 21.3125 C46.3575 22.6325 46.0275 23.9525 45.6875 25.3125 C42.0575 24.9825 38.4275 24.6525 34.6875 24.3125 C34.6875 25.3025 34.6875 26.2925 34.6875 27.3125 C38.6475 27.3125 42.6075 27.3125 46.6875 27.3125 C46.6875 28.6325 46.6875 29.9525 46.6875 31.3125 C43.0575 31.3125 39.4275 31.3125 35.6875 31.3125 C35.3575 32.9625 35.0275 34.6125 34.6875 36.3125 C31.54168577 36.34138514 28.39590531 36.35925923 25.25 36.375 C24.35216797 36.38337891 23.45433594 36.39175781 22.52929688 36.40039062 C21.24829102 36.40522461 21.24829102 36.40522461 19.94140625 36.41015625 C19.15064697 36.41539307 18.3598877 36.42062988 17.54516602 36.42602539 C15.6875 36.3125 15.6875 36.3125 14.6875 35.3125 C14.23290142 32.65786879 13.98506762 29.99060862 13.6875 27.3125 C13.26339844 27.84359375 12.83929687 28.3746875 12.40234375 28.921875 C11.81582031 29.62828125 11.22929687 30.3346875 10.625 31.0625 C10.05652344 31.75859375 9.48804687 32.4546875 8.90234375 33.171875 C6.07467039 35.90479387 3.15472989 37.46442068 -0.3125 39.3125 C-2.24019701 37.63637351 -4.1539591 35.94771371 -6.0625 34.25 C-6.60132813 33.78400391 -7.14015625 33.31800781 -7.6953125 32.83789062 C-13.30592196 27.80886874 -16.85703633 22.32260042 -17.55078125 14.69140625 C-17.75226971 7.04544951 -17.75226971 7.04544951 -15.4375 3.1875 C-10.86457333 -0.8474353 -5.84266261 0.05340642 0 0 Z M18.6875 25.3125 C18.6875 27.9525 18.6875 30.5925 18.6875 33.3125 C21.3275 33.3125 23.9675 33.3125 26.6875 33.3125 C26.6875 30.3425 26.6875 27.3725 26.6875 24.3125 C23.57492431 24.3125 21.57984315 24.48611624 18.6875 25.3125 Z " fill="#0E6746" transform="translate(18.3125,-0.3125)"/>
<path d="M0 0 C10.7421875 -0.1953125 10.7421875 -0.1953125 14 0 C14.66 0.66 15.32 1.32 16 2 C16.66 1.34 17.32 0.68 18 0 C21.2578125 -0.1953125 21.2578125 -0.1953125 25.125 -0.125 C27.04699219 -0.09792969 27.04699219 -0.09792969 29.0078125 -0.0703125 C30.48894531 -0.03550781 30.48894531 -0.03550781 32 0 C32 1.32 32 2.64 32 4 C28.04 4 24.08 4 20 4 C20 4.66 20 5.32 20 6 C23.96 6 27.92 6 32 6 C32 7.32 32 8.64 32 10 C28.04 9.67 24.08 9.34 20 9 C20 9.99 20 10.98 20 12 C23.96 12 27.92 12 32 12 C32 12.99 32 13.98 32 15 C28.25026094 15.11622939 24.50098536 15.1872595 20.75 15.25 C19.68652344 15.28351562 18.62304688 15.31703125 17.52734375 15.3515625 C16.50253906 15.36445312 15.47773437 15.37734375 14.421875 15.390625 C13.47924805 15.41157227 12.53662109 15.43251953 11.56542969 15.45410156 C8.28092125 14.87271731 7.10830534 13.50740841 5 11 C4.67 12.32 4.34 13.64 4 15 C2.68 15 1.36 15 0 15 C0 10.05 0 5.1 0 0 Z M11 3 C8.69 3.33 6.38 3.66 4 4 C4 4.66 4 5.32 4 6 C6.64 6 9.28 6 12 6 C11.67 5.01 11.34 4.02 11 3 Z M15 6 C15 6.99 15 7.98 15 9 C13.02 9.99 13.02 9.99 11 11 C13.475 11.495 13.475 11.495 16 12 C16 10.02 16 8.04 16 6 C15.67 6 15.34 6 15 6 Z " fill="#060606" transform="translate(66,21)"/>
<path d="M0 0 C0.95648438 0.00902344 1.91296875 0.01804687 2.8984375 0.02734375 C3.79820313 0.03894531 4.69796875 0.05054687 5.625 0.0625 C6.945 0.0625 8.265 0.0625 9.625 0.0625 C14.29166667 0.0625 18.95833333 0.0625 23.625 0.0625 C23.295 1.3825 22.965 2.7025 22.625 4.0625 C17.18 3.5675 17.18 3.5675 11.625 3.0625 C11.625 4.0525 11.625 5.0425 11.625 6.0625 C15.585 6.0625 19.545 6.0625 23.625 6.0625 C23.625 7.3825 23.625 8.7025 23.625 10.0625 C19.995 10.0625 16.365 10.0625 12.625 10.0625 C12.295 11.7125 11.965 13.3625 11.625 15.0625 C8.47918577 15.09138514 5.33340531 15.10925923 2.1875 15.125 C0.84075195 15.13756836 0.84075195 15.13756836 -0.53320312 15.15039062 C-1.81420898 15.15522461 -1.81420898 15.15522461 -3.12109375 15.16015625 C-3.91185303 15.16539307 -4.7026123 15.17062988 -5.51733398 15.17602539 C-7.375 15.0625 -7.375 15.0625 -8.375 14.0625 C-8.33710363 11.89366183 -8.22005485 9.72593976 -8.0625 7.5625 C-7.98386719 6.3765625 -7.90523437 5.190625 -7.82421875 3.96875 C-7.67597656 3.0096875 -7.52773438 2.050625 -7.375 1.0625 C-4.78575125 -0.23212437 -2.88874676 -0.03485083 0 0 Z M-4.375 4.0625 C-4.375 6.7025 -4.375 9.3425 -4.375 12.0625 C-1.735 12.0625 0.905 12.0625 3.625 12.0625 C3.625 9.0925 3.625 6.1225 3.625 3.0625 C0.51242431 3.0625 -1.48265685 3.23611624 -4.375 4.0625 Z " fill="#050506" transform="translate(41.375,20.9375)"/>
<path d="M0 0 C0.85980469 -0.02900391 1.71960938 -0.05800781 2.60546875 -0.08789062 C6.72861569 -0.12918563 9.15614825 -0.02196823 12.80859375 2.03515625 C14.97178636 4.57266388 15.41747957 5.7753703 15.5625 9.0625 C15.61019531 9.86171875 15.65789063 10.6609375 15.70703125 11.484375 C15.72121094 12.08765625 15.73539063 12.6909375 15.75 13.3125 C15.09 13.3125 14.43 13.3125 13.75 13.3125 C13.75 13.9725 13.75 14.6325 13.75 15.3125 C12.76 15.3125 11.77 15.3125 10.75 15.3125 C10.42 14.6525 10.09 13.9925 9.75 13.3125 C8.76 13.8075 8.76 13.8075 7.75 14.3125 C8.08 12.0025 8.41 9.6925 8.75 7.3125 C4.79 7.3125 0.83 7.3125 -3.25 7.3125 C-2.92 10.9425 -2.59 14.5725 -2.25 18.3125 C-6.25 17.3125 -6.25 17.3125 -7.515625 15.4921875 C-9.64501057 10.50672129 -10.8155819 6.74208629 -10.25 1.3125 C-8.01484509 -0.92265491 -2.99909808 0.033127 0 0 Z " fill="#11724F" transform="translate(20.25,8.6875)"/>
<path d="M0 0 C1.56911133 -0.04350586 1.56911133 -0.04350586 3.16992188 -0.08789062 C10.90164225 -0.15187049 10.90164225 -0.15187049 14.8671875 2.19140625 C16.68976821 4.315143 17.39185037 5.55310341 17.6875 8.3125 C17.0275 8.6425 16.3675 8.9725 15.6875 9.3125 C14.01802198 8.65290515 12.35174139 7.98519817 10.6875 7.3125 C8.18320535 6.95439679 8.18320535 6.95439679 5.60546875 6.8984375 C4.67412109 6.85976562 3.74277344 6.82109375 2.78320312 6.78125 C1.82349609 6.7503125 0.86378906 6.719375 -0.125 6.6875 C-1.10404297 6.64882812 -2.08308594 6.61015625 -3.09179688 6.5703125 C-5.4983998 6.47639629 -7.90542351 6.39337436 -10.3125 6.3125 C-10.6425 10.2725 -10.9725 14.2325 -11.3125 18.3125 C-13.05877478 15.69308783 -13.69972388 14.27425123 -14.3125 11.3125 C-14.6425 12.9625 -14.9725 14.6125 -15.3125 16.3125 C-15.9725 16.3125 -16.6325 16.3125 -17.3125 16.3125 C-17.93989631 7.3372473 -17.93989631 7.3372473 -15.4375 3.25 C-10.90804277 -0.87979924 -5.85852374 0.05355141 0 0 Z " fill="#1A6050" transform="translate(18.3125,-0.3125)"/>
<path d="M0 0 C1.93166016 0.01740234 1.93166016 0.01740234 3.90234375 0.03515625 C5.19269531 0.04417969 6.48304687 0.05320312 7.8125 0.0625 C8.81152344 0.07410156 9.81054688 0.08570312 10.83984375 0.09765625 C10.83984375 1.08765625 10.83984375 2.07765625 10.83984375 3.09765625 C4.89984375 3.59265625 4.89984375 3.59265625 -1.16015625 4.09765625 C-1.16015625 4.75765625 -1.16015625 5.41765625 -1.16015625 6.09765625 C-0.37769531 6.08605469 0.40476562 6.07445312 1.2109375 6.0625 C2.22285156 6.05347656 3.23476562 6.04445313 4.27734375 6.03515625 C5.28667969 6.02355469 6.29601562 6.01195312 7.3359375 6 C9.83984375 6.09765625 9.83984375 6.09765625 10.83984375 7.09765625 C10.96484375 10.59765625 10.96484375 10.59765625 10.83984375 14.09765625 C9.83984375 15.09765625 9.83984375 15.09765625 6.6796875 15.1953125 C4.74802734 15.17791016 4.74802734 15.17791016 2.77734375 15.16015625 C1.48699219 15.15113281 0.19664063 15.14210938 -1.1328125 15.1328125 C-2.13183594 15.12121094 -3.13085938 15.10960937 -4.16015625 15.09765625 C-4.16015625 14.10765625 -4.16015625 13.11765625 -4.16015625 12.09765625 C-0.20015625 12.09765625 3.75984375 12.09765625 7.83984375 12.09765625 C7.83984375 11.10765625 7.83984375 10.11765625 7.83984375 9.09765625 C3.87984375 9.09765625 -0.08015625 9.09765625 -4.16015625 9.09765625 C-4.2578125 2.9453125 -4.2578125 2.9453125 -4.16015625 1.09765625 C-3.16015625 0.09765625 -3.16015625 0.09765625 0 0 Z " fill="#050505" transform="translate(103.16015625,20.90234375)"/>
<path d="M0 0 C1.32 0 2.64 0 4 0 C4 1.98 4 3.96 4 6 C6.64 6 9.28 6 12 6 C12 4.02 12 2.04 12 0 C13.32 0 14.64 0 16 0 C16 4.95 16 9.9 16 15 C14.68 15 13.36 15 12 15 C12 13.02 12 11.04 12 9 C9.36 9 6.72 9 4 9 C4 10.98 4 12.96 4 15 C2.68 15 1.36 15 0 15 C0 10.05 0 5.1 0 0 Z " fill="#010101" transform="translate(115,21)"/>
<path d="M0 0 C0.99 0 1.98 0 3 0 C3.33 0.99 3.66 1.98 4 3 C4.99 3 5.98 3 7 3 C7 4.65 7 6.3 7 8 C6.34 7.34 5.68 6.68 5 6 C4.50628906 6.56589844 4.01257813 7.13179687 3.50390625 7.71484375 C2.86324219 8.44832031 2.22257812 9.18179687 1.5625 9.9375 C0.92441406 10.66839844 0.28632813 11.39929688 -0.37109375 12.15234375 C-2.87333501 14.99061741 -2.87333501 14.99061741 -6.375 15.25 C-10 15 -10 15 -11.9375 13.75 C-13 12 -13 12 -13 8 C-10.525 8.99 -10.525 8.99 -8 10 C-6.85157077 8.71064081 -5.70633773 7.41843421 -4.5625 6.125 C-3.92441406 5.40570312 -3.28632813 4.68640625 -2.62890625 3.9453125 C-0.94985535 2.09249509 -0.94985535 2.09249509 0 0 Z " fill="#166149" transform="translate(27,21)"/>
<path d="M0 0 C3.72890255 -0.1164862 7.45733514 -0.18734576 11.1875 -0.25 C12.77014648 -0.30027344 12.77014648 -0.30027344 14.38476562 -0.3515625 C22.23396966 -0.45060608 22.23396966 -0.45060608 26.1875 1.875 C28.00026066 4.0003056 28.70484665 5.24523539 29 8 C28.01 8.495 28.01 8.495 27 9 C25.33052198 8.34040515 23.66424139 7.67269817 22 7 C19.49570535 6.64189679 19.49570535 6.64189679 16.91796875 6.5859375 C15.98662109 6.54726562 15.05527344 6.50859375 14.09570312 6.46875 C13.13599609 6.4378125 12.17628906 6.406875 11.1875 6.375 C10.20845703 6.33632812 9.22941406 6.29765625 8.22070312 6.2578125 C5.81398626 6.16389184 3.40726988 6.07821799 1 6 C1 5.67 1 5.34 1 5 C8.92 4.505 8.92 4.505 17 4 C13.53287889 2.84429296 10.4585044 2.67164707 6.8125 2.4375 C5.54019531 2.35371094 4.26789062 2.26992188 2.95703125 2.18359375 C1.98121094 2.12300781 1.00539063 2.06242188 0 2 C0 1.34 0 0.68 0 0 Z " fill="#339379" transform="translate(7,0)"/>
<path d="M0 0 C3.06345144 -0.10822792 6.1230601 -0.18741479 9.1875 -0.25 C10.05181641 -0.28351562 10.91613281 -0.31703125 11.80664062 -0.3515625 C15.95046965 -0.41506946 18.3869923 -0.34403493 22.0625 1.71875 C24.21962387 4.2585894 24.66756256 5.46475139 24.8125 8.75 C24.86019531 9.54921875 24.90789063 10.3484375 24.95703125 11.171875 C24.97121094 11.77515625 24.98539063 12.3784375 25 13 C24.34 13 23.68 13 23 13 C23 13.66 23 14.32 23 15 C22.01 15 21.02 15 20 15 C19.67 14.34 19.34 13.68 19 13 C18.01 13.495 18.01 13.495 17 14 C17.33 11.69 17.66 9.38 18 7 C13.38 7 8.76 7 4 7 C4 6.34 4 5.68 4 5 C6.27024968 4.91902676 8.54132075 4.86082296 10.8125 4.8125 C12.07707031 4.77769531 13.34164063 4.74289063 14.64453125 4.70703125 C18 5 18 5 19.94921875 6.51171875 C20.29597656 7.00285156 20.64273437 7.49398438 21 8 C20.67 6.35 20.34 4.7 20 3 C13.07 2.67 6.14 2.34 -1 2 C-0.67 1.34 -0.34 0.68 0 0 Z " fill="#2F816A" transform="translate(11,9)"/>
<path d="M0 0 C0.66 0 1.32 0 2 0 C2 0.66 2 1.32 2 2 C2.66 2.33 3.32 2.66 4 3 C4.45375 3.680625 4.9075 4.36125 5.375 5.0625 C6.179375 6.0215625 6.179375 6.0215625 7 7 C8.32 7 9.64 7 11 7 C13.18700941 9.18700941 13.3802485 10.07831434 14 13 C14.33 13.99 14.66 14.98 15 16 C16.65 16 18.3 16 20 16 C18.68 16.99 17.36 17.98 16 19 C2.96127563 7.84738041 2.96127563 7.84738041 0 0 Z " fill="#0F5637" transform="translate(2,20)"/>
<path d="M0 0 C1.23492187 -0.01417969 2.46984375 -0.02835937 3.7421875 -0.04296875 C6.86586712 0.16984545 8.52561596 0.53512774 11.125 2.1875 C11.125 2.5175 11.125 2.8475 11.125 3.1875 C0.73 3.6825 0.73 3.6825 -9.875 4.1875 C-9.545 3.1975 -9.215 2.2075 -8.875 1.1875 C-5.9336446 -0.2831777 -3.27272595 0.01701001 0 0 Z " fill="#077448" transform="translate(13.875,1.8125)"/>
<path d="M0 0 C2.79192205 -0.05380578 5.5828141 -0.09357669 8.375 -0.125 C9.1690625 -0.14175781 9.963125 -0.15851562 10.78125 -0.17578125 C12.85492015 -0.19335473 14.92883241 -0.10335168 17 0 C19 2 19 2 19.125 4.625 C19.08375 5.40875 19.0425 6.1925 19 7 C18.4534375 6.5153125 17.906875 6.030625 17.34375 5.53125 C14.54038258 3.69971662 12.81826714 3.60939342 9.5 3.5 C5.29099526 3.3612416 3.1791772 2.81927034 0 0 Z " fill="#0C7246" transform="translate(14,11)"/>
<path d="M0 0 C0.99 0 1.98 0 3 0 C3.33 0.99 3.66 1.98 4 3 C4.99 3 5.98 3 7 3 C7 4.65 7 6.3 7 8 C6.34 7.34 5.68 6.68 5 6 C4.01 6.99 3.02 7.98 2 9 C2 7.68 2 6.36 2 5 C1.01 4.67 0.02 4.34 -1 4 C-0.67 2.68 -0.34 1.36 0 0 Z " fill="#1A5D47" transform="translate(27,21)"/>
<path d="M0 0 C2.125 0.375 2.125 0.375 4 1 C4 2.65 4 4.3 4 6 C2.68 6 1.36 6 0 6 C-0.33 6.66 -0.66 7.32 -1 8 C-1.66 7.67 -2.32 7.34 -3 7 C-2.25 2.25 -2.25 2.25 0 0 Z " fill="#137553" transform="translate(25,25)"/>
<path d="M0 0 C0.99 0 1.98 0 3 0 C3.33 1.98 3.66 3.96 4 6 C4.99 6 5.98 6 7 6 C7.33 7.65 7.66 9.3 8 11 C6.140625 10.81640625 6.140625 10.81640625 4 10 C2.734375 7.71484375 2.734375 7.71484375 1.75 4.9375 C1.41484375 4.01839844 1.0796875 3.09929688 0.734375 2.15234375 C0.49203125 1.44207031 0.2496875 0.73179688 0 0 Z " fill="#165C4E" transform="translate(10,16)"/>
<path d="M0 0 C1.32 0 2.64 0 4 0 C3.67 3.96 3.34 7.92 3 12 C0.79107828 8.68661742 -0.08787021 5.85901066 -1 2 C-0.67 1.34 -0.34 0.68 0 0 Z " fill="#1D704F" transform="translate(4,6)"/>
<path d="M0 0 C3.82946843 1.45255699 5.12050295 3.42895561 7 7 C3 7 3 7 1.25 5.75 C0 4 0 4 0 0 Z " fill="#116E48" transform="translate(14,29)"/>
<path d="M0 0 C3.81538462 2.46153846 3.81538462 2.46153846 4.75 5.1875 C4.8325 5.785625 4.915 6.38375 5 7 C4.01 7.495 4.01 7.495 3 8 C2.01 7.01 1.02 6.02 0 5 C0.66 5 1.32 5 2 5 C1.34 3.35 0.68 1.7 0 0 Z " fill="#317C72" transform="translate(31,1)"/>
</svg>
